<svg height="512" viewBox="0 0 128 128" width="512" xmlns="http://www.w3.org/2000/svg"><g id="number"><text fill="#24253a" font-family="MyriadPro-Regular, Myriad Pro" font-size="40" letter-spacing=".002em" transform="translate(56.724 -282.265)">6<tspan x="-10.3" y="228">16</tspan><tspan x="-10.3" y="456">26</tspan><tspan x="-10.3" y="684">36</tspan><tspan x="-10.3" y="912">46</tspan><tspan x="-10.3" y="1140">56</tspan><tspan x="-10.3" y="1368">66</tspan><tspan x="-10.3" y="1596">76</tspan><tspan x="-10.3" y="1824">86</tspan><tspan x="-10.3" y="2052">96</tspan><tspan x="-20.599" y="2280">106</tspan><tspan x="-20.599" y="2508">116</tspan><tspan x="-20.599" y="2736">126</tspan><tspan x="-20.599" y="2964">136</tspan><tspan x="-20.599" y="3192">146</tspan><tspan x="-20.599" y="3420">156</tspan><tspan x="-20.599" y="3648">166</tspan><tspan x="-20.599" y="3876">176</tspan><tspan x="-20.599" y="4104">186</tspan><tspan x="-20.599" y="4332">196</tspan><tspan x="-20.599" y="4560">206</tspan><tspan x="-20.599" y="4788">216</tspan><tspan x="-20.599" y="5016">226</tspan><tspan x="-20.599" y="5244">236</tspan><tspan x="-20.599" y="5472">246</tspan></text></g><g id="Circle_Grid" data-name="Circle Grid"><circle cx="64" cy="64" fill="#f6c863" r="64"/></g><g id="icon"><path d="m99.488 98.656v4a1.688 1.688 0 0 1 -1.688 1.688h-6.751a1.688 1.688 0 0 1 -1.688-1.688v-4z" fill="#575b6d"/><path d="m38.639 98.656v4a1.688 1.688 0 0 1 -1.688 1.688h-6.751a1.688 1.688 0 0 1 -1.688-1.688v-4z" fill="#575b6d"/><path d="m46.842 74.945c-4 0-7.253-4.06-7.253-9.049s3.254-9.049 7.253-9.049 7.258 4.059 7.258 9.053-3.258 9.045-7.258 9.045zm0-16.556c-3.223.001-5.842 3.368-5.842 7.511s2.619 7.5 5.842 7.5 5.845-3.367 5.845-7.506-2.622-7.504-5.845-7.504z" fill="#eeefee"/><path d="m46.842 74.945c-2.51 0-4.476-3.975-4.476-9.049s1.966-9.049 4.476-9.049 4.476 3.975 4.476 9.049-1.966 9.049-4.476 9.049zm0-17.167c-1.921 0-3.544 3.717-3.544 8.117s1.623 8.117 3.544 8.117 3.545-3.712 3.545-8.112-1.624-8.122-3.545-8.122z" fill="#dbd8dd"/><path d="m46.842 74.945c-2.51 0-4.476-3.975-4.476-9.049s1.966-9.049 4.476-9.049 4.476 3.975 4.476 9.049-1.966 9.049-4.476 9.049zm0-16.067c-1.661 0-3.064 3.214-3.064 7.017s1.4 7.017 3.064 7.017 3.064-3.212 3.064-7.012-1.406-7.022-3.064-7.022z" fill="#eeefee"/><path d="m45.969 44.909h1.919v29.57h-1.919z" fill="#eeefee"/><path d="m35.942 38.053h21.8a0 0 0 0 1 0 0v6.118a1.688 1.688 0 0 1 -1.688 1.688h-18.424a1.688 1.688 0 0 1 -1.688-1.688v-6.118a0 0 0 0 1 0 0z" fill="#ef5261"/><path d="m30.879 33.2h31.927a0 0 0 0 1 0 0v6.118a1.688 1.688 0 0 1 -1.688 1.688h-28.551a1.688 1.688 0 0 1 -1.688-1.688v-6.118a0 0 0 0 1 0 0z" fill="#da364c"/><path d="m68.08 85.1v4.435h-42.3v-4.435a2 2 0 0 1 2-2h38.3a2 2 0 0 1 2 2z" fill="#ef5261"/><path d="m105 39.212v50.845h-31.789l9.283-37.409v-13.164a3.014 3.014 0 0 0 -3.014-3.014h-54.98a1.5 1.5 0 0 1 -1.5-1.5v-5.58a5.743 5.743 0 0 1 5.743-5.743h60.7a15.56 15.56 0 0 1 15.557 15.565z" fill="#ef5261"/><path d="m24.584 88.65h80.416a0 0 0 0 1 0 0v5.89a5.362 5.362 0 0 1 -5.362 5.36h-71.276a5.362 5.362 0 0 1 -5.362-5.36v-4.306a1.584 1.584 0 0 1 1.584-1.584z" fill="#da364c"/><circle cx="92.22" cy="78.287" fill="#eeefee" r="6.147"/><circle cx="92.22" cy="78.287" fill="#dbd8dd" r="3.901"/><g fill="#f6c863"><rect height="2.831" rx="1.415" width="5.55" x="86.669" y="59.369"/><rect height="2.831" rx="1.415" width="5.55" x="95.143" y="59.369"/><rect height="2.831" rx="1.415" width="5.55" x="86.669" y="65.091"/><rect height="2.831" rx="1.415" width="5.55" x="95.143" y="65.091"/><rect height="2.831" rx="1.415" width="5.55" x="86.669" y="53.647"/><rect height="2.831" rx="1.415" width="5.55" x="95.143" y="53.647"/></g><path d="m66.29 62.53c0 13.93-8.67 20.56-19.37 20.56-6.19 0-11.71-2.23-15.25-6.82-2.57-3.32-4.1-7.88-4.1-13.74z" fill="#bbbbcd"/><path d="m63.15 62.53c-1.16 11.89-9.32 17.57-19.22 17.57a19.857 19.857 0 0 1 -12.26-3.83c-2.57-3.32-4.1-7.88-4.1-13.74z" fill="#dbd8dd"/><rect fill="#da364c" height="1.458" rx=".729" width="14.02" x="86.67" y="40.277"/><rect fill="#da364c" height="1.458" rx=".729" width="14.02" x="86.67" y="45.129"/></g></svg>